PathFileType	4	(X/Y/Z)	1_Data\scaling.trc
DataRate	CameraRate	NumFrames	NumMarkers	Units	OrigDataRate	OrigDataStartFrame	OrigNumFrames
120.000000	120.000000	4	71	mm	120.000000	0	697
Frame#	Time	Sternum			Neck			RShoulder			LShoulder			Xiphoid			Thoracic			RAsis			LAsis			RPsis			LPsis			RElbow			RElbowMedial			RShoulderAnterior			RShoulderPosterior			RWrist			RRadius			RUlna			LElbow			LElbowMedial			LShoulderAnterior			LShoulderPosterior			LWrist			LUlna			LRadius			LThighSuperior			LThighInferior			LThighLateral			LKneeLateral			LKneeMedial			LPatella			LShankSuperior			LShankInferior			LShankLateral			LAnkleLateral			LAnkleMedial			RThighSuperior			RThighInferior			RThighLateral			RKneeLateral			RPatella			RShankSuperior			RShankInferior			RShankLateral			RAnkleLateral			RankleMedial			RHeel			RToe			RMidfootMedial			RMidfootLateral			RHindfoot			RMidfootSuperior			RToeMedial			RToeLateral			LHeel			LToe			LMidfootMedial			LMidfootLateral			LHindfoot			LMidfootSuperior			LToeMedial			LToeLateral			RKneeMedial			Lumbar			Oglobal			Sacral			Xglobal			Yglobal			Zglobal			*68			*69			*70			
		X1	Y1	Z1	X2	Y2	Z2	X3	Y3	Z3	X4	Y4	Z4	X5	Y5	Z5	X6	Y6	Z6	X7	Y7	Z7	X8	Y8	Z8	X9	Y9	Z9	X10	Y10	Z10	X11	Y11	Z11	X12	Y12	Z12	X13	Y13	Z13	X14	Y14	Z14	X15	Y15	Z15	X16	Y16	Z16	X17	Y17	Z17	X18	Y18	Z18	X19	Y19	Z19	X20	Y20	Z20	X21	Y21	Z21	X22	Y22	Z22	X23	Y23	Z23	X24	Y24	Z24	X25	Y25	Z25	X26	Y26	Z26	X27	Y27	Z27	X28	Y28	Z28	X29	Y29	Z29	X30	Y30	Z30	X31	Y31	Z31	X32	Y32	Z32	X33	Y33	Z33	X34	Y34	Z34	X35	Y35	Z35	X36	Y36	Z36	X37	Y37	Z37	X38	Y38	Z38	X39	Y39	Z39	X40	Y40	Z40	X41	Y41	Z41	X42	Y42	Z42	X43	Y43	Z43	X44	Y44	Z44	X45	Y45	Z45	X46	Y46	Z46	X47	Y47	Z47	X48	Y48	Z48	X49	Y49	Z49	X50	Y50	Z50	X51	Y51	Z51	X52	Y52	Z52	X53	Y53	Z53	X54	Y54	Z54	X55	Y55	Z55	X56	Y56	Z56	X57	Y57	Z57	X58	Y58	Z58	X59	Y59	Z59	X60	Y60	Z60	X61	Y61	Z61	X62	Y62	Z62	X63	Y63	Z63	X64	Y64	Z64	X65	Y65	Z65	X66	Y66	Z66	X67	Y67	Z67	X68	Y68	Z68	X69	Y69	Z69	X70	Y70	Z70	X71	Y71	Z71	

1	0	535.3884887695312	1459.325805664062	-470.1278381347655	381.5337829589844	1572.720825195312	-452.1614685058593	433.4928894042969	1556.850219726562	-301.6307373046874	407.1878662109375	1557.31103515625	-598.1210327148436	563.0498657226562	1303.633544921875	-458.2038574218749	293.7950439453125	1352.098754882812	-450.3500366210937	491.9420471191406	1039.41748046875	-323.2441406249999	503.6875	1045.130737304688	-604.9118041992186	306.0928039550781	1067.883911132812	-412.8695068359374	304.47509765625	1067.644409179688	-515.0841064453124	522.0685424804688	1320.425903320312	-82.65290832519523	552.47900390625	1253.772338867188	-149.8571166992187	487.5908813476562	1500.195922851562	-309.9692077636718	374.3943786621094	1504.522583007812	-281.376739501953	789.3392944335938	1352.976806640625	-78.69888305664054	802.0478515625	1326.213134765625	-122.7506408691405	791.1668090820312	1326.790893554688	-40.80219650268547	532.7740478515625	1322.613403320312	-810.7819824218749	546.3859252929688	1258.063598632812	-744.0294189453124	469.5038757324219	1511.2705078125	-616.7470703124999	358.4358520507812	1499.235595703125	-629.3844604492186	801.0921630859375	1353.176025390625	-796.3090209960936	796.0635375976562	1317.644165039062	-828.1910400390624	809.0452270507812	1332.06005859375	-753.5435791015624	444.9468078613281	874.442626953125	-659.11474609375	469.5079956054688	643.3153076171875	-640.8580322265625	544.4818115234375	747.4769897460938	-588.0116577148438	473.8485717773438	558.2615356445312	-643.4827880859375	467.1927185058594	565.3787841796875	-501.5895080566406	552.2153930664062	554.648193359375	-578.4816284179688	464.9336242675781	406.0998535156251	-661.4130249023438	429.4071350097656	205.1658935546875	-643.3167724609375	487.9353637695312	294.6067810058594	-602.7584838867188	410.6688842773438	124.4401626586914	-643.5980224609375	439.6174621582031	125.3257675170899	-558.1844482421875	427.8706970214844	846.5855712890625	-287.1502990722656	442.2842407226562	610.369384765625	-310.8130493164062	531.4505615234375	764.16455078125	-340.3782043457031	434.7719116210938	545.5009155273438	-309.4208374023437	527.9246826171875	539.987060546875	-350.9487609863281	421.3898620605469	448.742919921875	-303.9917907714844	413.9559326171875	194.4635162353516	-335.9162902832031	480.4266967773438	318.6409606933594	-367.9407958984375	404.7943115234375	120.1525573730469	-339.1241760253906	436.5926818847656	137.4608459472657	-425.707275390625	331.7646484375	79.39575958251956	-394.6803894042969	645.9072265625	62.98569869995119	-351.7170715332031	552.363037109375	49.15282821655276	-414.2123107910156	540.7955932617188	43.55302429199221	-295.5638732910156	486.1775207519531	43.65704345703127	-309.8568725585938	514.8045043945312	110.4004592895508	-365.4839782714844	597.6424560546875	50.25439071655276	-403.9410400390625	588.7008056640625	48.24036788940432	-301.538818359375	341.3832702636719	83.32460784912114	-591.1822509765625	648.6890258789062	73.76510620117192	-642.8343505859375	555.358642578125	50.72933578491214	-578.4810180664062	541.66845703125	47.08156585693364	-694.9332275390625	487.4606628417969	46.43964767456059	-680.0712890625	523.3759765625	112.5644149780274	-625.6658325195312	597.3988037109375	51.35371398925785	-587.0889892578125	585.9615478515625	56.76017761230473	-690.1983032226562	477.833984375	543.1846923828125	-446.1287231445312	317.4487609863281	1169.882202148438	-459.3093566894531	0	0	0	305.283935546875	1067.76416015625	-463.9768066406249	200	0	0	0	1.224646799147353e-14	-200	0	200	1.224646799147353e-14	nan	nan	nan	nan	nan	nan	nan	nan	nan	
2	0.008333333333333333	535.2783203125	1459.449951171875	-470.0632019042968	381.37353515625	1572.708251953125	-452.1307067871093	433.3396911621094	1556.810302734375	-301.4911499023436	406.9627075195312	1557.189331054688	-598.1784057617186	563.030029296875	1303.685424804688	-458.1975708007812	293.7125549316406	1352.065551757812	-450.1843872070312	491.9430541992188	1039.438354492188	-323.1629638671874	503.653076171875	1045.177856445312	-604.8724365234374	306.0960998535156	1067.850463867188	-412.7468261718749	304.4382934570312	1067.62353515625	-514.9885864257811	521.588623046875	1319.902709960938	-82.88469696044913	552.1240234375	1253.3818359375	-149.984893798828	487.4849548339844	1500.134643554688	-309.9124145507811	374.2563781738281	1504.463989257812	-281.3562622070311	788.8993530273438	1352.61572265625	-78.73259735107413	802.0244140625	1326.645751953125	-124.7574005126952	790.7488403320312	1326.414184570312	-40.94313812255852	532.318603515625	1322.145385742188	-810.6847534179686	545.8103637695312	1257.530395507812	-743.7360229492186	469.2144775390625	1511.119995117188	-616.8236083984374	358.11767578125	1499.21826171875	-629.5573730468749	800.523681640625	1352.820556640625	-796.0389404296874	795.5619506835938	1317.314331054688	-827.9478149414061	808.3463134765625	1331.681640625	-753.4167480468749	444.9222717285156	874.4512329101562	-659.0886840820312	469.5488891601562	643.3314819335938	-640.8365478515625	544.4717407226562	747.4815673828125	-587.9642333984375	473.8800354003906	558.2584228515625	-643.4860229492188	467.4475402832031	565.1878662109375	-501.5060119628906	552.2299194335938	554.6436767578125	-578.44921875	464.9898986816406	406.0956726074219	-661.4141235351562	429.3435363769531	205.0065612792969	-643.3671264648438	487.9172973632812	294.5959472656251	-602.7373046875	410.6694030761719	124.4403076171875	-643.598388671875	439.518310546875	125.2518615722657	-558.0183715820312	427.9059753417969	846.5878295898438	-287.0559997558593	442.3603820800781	610.3546142578125	-310.7652282714843	531.4906005859375	764.15625	-340.3593749999999	434.764892578125	545.3361206054688	-309.6778869628906	527.9933471679688	539.9727783203125	-350.9402160644531	421.4477844238281	448.7409362792969	-303.9439697265625	413.9376220703125	194.4479064941407	-335.8916931152344	480.4421997070312	318.6135559082031	-367.9682006835938	404.8088073730469	120.162826538086	-339.10400390625	436.5703125	137.4479217529297	-425.6858215332031	331.7152709960938	79.29863739013675	-394.8216857910156	645.8917236328125	63.02155685424807	-351.720703125	552.3643798828125	49.1556091308594	-414.2198486328125	540.9263916015625	43.37039184570315	-295.7280883789062	486.1567687988281	43.66040802001955	-309.8429870605469	514.253662109375	110.8640289306641	-364.5942687988281	597.6371459960938	50.24813079833987	-403.9427490234375	588.6932373046875	48.27254867553713	-301.5224609375	341.3514709472656	83.31668090820317	-591.11767578125	648.6815795898438	73.71595001220707	-642.8148803710938	555.4346923828125	50.70799255371097	-578.4876708984375	541.68212890625	47.07906723022465	-694.94970703125	487.7314147949219	46.49263000488286	-680.0499267578125	523.3851318359375	112.4809722900391	-625.6217651367188	597.0822143554688	51.44158554077152	-587.1099853515625	585.9475708007812	56.75519561767582	-690.189208984375	477.8997802734375	543.1729736328125	-446.1173400878906	317.3932189941406	1169.860107421875	-459.2165832519531	0	0	0	305.2672119140625	1067.737060546875	-463.8677062988281	200	0	0	0	1.224646799147353e-14	-200	0	200	1.224646799147353e-14	nan	nan	nan	nan	nan	nan	nan	nan	nan	
3	0.01666666666666667	535.1400756835938	1459.521606445312	-470.1204833984374	381.2208251953125	1572.702270507812	-452.1158447265624	433.2222290039062	1556.744995117188	-301.472198486328	406.7644348144531	1557.0673828125	-598.2113037109374	563.0366821289062	1303.824096679688	-458.1510620117187	293.6657409667969	1352.022827148438	-450.1131591796874	491.9675903320312	1039.4599609375	-323.0758056640624	503.6043395996094	1045.151489257812	-604.7919311523436	306.0989990234375	1067.8310546875	-412.6281433105468	304.4024658203125	1067.600341796875	-514.8983764648436	521.2099609375	1319.375732421875	-83.16117095947257	551.7646484375	1253.062866210938	-150.2164459228515	487.3787231445312	1500.081420898438	-309.8761291503905	374.1425476074219	1504.4111328125	-281.3288269042968	788.4056396484375	1352.233032226562	-78.78043365478507	801.5814819335938	1326.167236328125	-124.6965103149413	790.2324829101562	1325.967529296875	-40.97132873535148	531.9092407226562	1321.674682617188	-810.5941772460936	545.3844604492188	1257.057739257812	-743.6299438476561	469.0064392089844	1510.972045898438	-616.9743041992186	357.73974609375	1498.955078125	-629.3632202148436	799.924560546875	1352.5849609375	-795.8899536132811	795.0406494140625	1316.86669921875	-827.7658081054686	807.7450561523438	1331.204711914062	-753.1802368164061	444.86572265625	874.431640625	-658.9782104492188	469.5403747558594	643.3128662109375	-640.7816772460938	544.4632568359375	747.4949951171875	-587.9400024414062	473.8577575683594	558.264404296875	-643.459716796875	467.6013488769531	565.0933837890625	-501.4855346679687	552.2596435546875	554.6278076171875	-578.417724609375	464.9591979980469	406.1005249023438	-661.3413696289062	429.3147583007812	205.0805358886719	-643.3590698242188	487.9447021484375	294.5767517089844	-602.7142944335938	410.6797790527344	124.4412231445313	-643.5812377929688	439.5148010253906	125.2428665161133	-557.9912719726562	427.9415283203125	846.576904296875	-286.9687194824218	442.4393005371094	610.315673828125	-310.6881103515624	531.505859375	764.147216796875	-340.3095703124999	434.8498840332031	545.3251342773438	-309.6027832031249	528.0567626953125	539.9632568359375	-350.9119873046874	421.4202575683594	448.7862243652344	-303.6504516601562	413.9374694824219	194.4326477050782	-335.8700256347656	480.47314453125	318.6217346191406	-367.9120178222656	404.7346496582031	119.9926986694336	-339.2855224609375	436.5746765136719	137.4507141113282	-425.6900939941406	331.7714538574219	79.38822174072268	-394.6792297363281	645.901123046875	63.08116149902346	-351.7077941894531	552.354736328125	49.15116500854495	-414.1439819335938	540.9110717773438	43.38557052612307	-295.7244567871094	486.1596374511719	43.66988754272463	-309.833251953125	514.6212768554688	110.5472259521485	-365.6587219238281	597.6420288085938	50.30089950561526	-403.9627990722656	588.6895141601562	48.26528549194338	-301.5360412597656	341.3665466308594	83.34063720703129	-591.1385498046875	648.6828002929688	73.73248291015629	-642.8126220703125	555.4291381835938	50.69473266601566	-578.509033203125	541.7001342773438	47.10636520385746	-694.966552734375	487.7706298828125	46.49871826171879	-680.0537109375	523.3759765625	112.5627746582032	-625.6629638671875	597.1129150390625	51.47158432006839	-587.0711669921875	585.9760131835938	56.76573562622075	-690.1908569335938	477.9602355957031	543.1659545898438	-446.0862426757812	317.3692321777344	1169.839965820312	-459.1083984374999	0	0	0	305.250732421875	1067.715698242188	-463.7632446289062	200	0	0	0	1.224646799147353e-14	-200	0	200	1.224646799147353e-14	nan	nan	nan	nan	nan	nan	nan	nan	nan	
4	0.025	535.031494140625	1459.579956054688	-470.154571533203	381.0671691894531	1572.684814453125	-452.0806274414061	433.1077270507812	1556.69384765625	-301.4088439941405	406.5691223144531	1556.942016601562	-598.2553710937499	563.01220703125	1303.8916015625	-458.1794128417968	293.6097106933594	1351.976928710938	-450.0632019042968	491.9926452636719	1039.470947265625	-323.0400390624999	503.364013671875	1045.208129882812	-604.5507812499999	306.1103210449219	1067.832153320312	-412.5512390136718	304.3707275390625	1067.560668945312	-514.7956542968749	520.80810546875	1318.84765625	-83.26103973388663	551.343994140625	1252.648071289062	-150.5052185058593	487.2748413085938	1499.998168945312	-309.8322143554686	374.0245666503906	1504.343017578125	-281.2868041992186	787.951904296875	1351.80224609375	-78.92648315429679	800.9860229492188	1325.790161132812	-124.3701248168944	789.7455444335938	1325.647705078125	-41.02016448974602	531.3696899414062	1321.11328125	-810.4370117187499	544.6571044921875	1256.6533203125	-743.2151489257811	468.8150939941406	1510.847534179688	-617.0809936523436	357.5275268554688	1498.89599609375	-629.3204345703124	799.3472290039062	1352.293823242188	-795.6745605468749	794.379638671875	1316.6875	-827.4248657226561	807.119384765625	1330.88330078125	-752.9630737304686	444.8475036621094	874.4339599609375	-658.9293823242188	469.5513916015625	643.3092041015625	-640.7218017578125	544.4577026367188	747.5006103515625	-587.8745727539062	473.8556213378906	558.2273559570312	-643.4152221679688	467.6014099121094	565.1119995117188	-501.4218444824218	552.2678833007812	554.6428833007812	-578.391845703125	464.9984130859375	406.1083374023438	-661.3403930664062	429.3525390625	205.0123901367188	-643.3720092773438	487.9495544433594	294.5681457519532	-602.6994018554688	410.6800537109375	124.4410400390625	-643.5803833007812	439.5044860839844	125.2437210083008	-558.0140380859375	427.99072265625	846.565185546875	-286.8640136718749	442.4991760253906	610.3234252929688	-310.6306457519531	531.5487060546875	764.1544189453125	-340.2498168945312	434.9064331054688	545.3121337890625	-309.5647888183593	528.1146850585938	539.9833374023438	-350.8579406738281	421.4666137695312	448.7936706542969	-303.5921325683594	413.9567565917969	194.4278564453125	-335.8809814453125	480.4869689941406	318.5980224609375	-367.8983154296875	404.7550048828125	120.0093841552735	-339.2569885253906	436.5794982910156	137.453353881836	-425.6946716308594	331.7725219726562	79.39394378662112	-394.6688232421875	645.9008178710938	63.1088447570801	-351.7115173339844	552.8101806640625	49.51868820190433	-414.71923828125	540.9260864257812	43.3980178833008	-295.7200317382812	486.1603088378906	43.66632461547854	-309.829345703125	514.1705322265625	111.1384353637696	-364.8247680664062	597.6358642578125	50.28664398193362	-403.9705505371094	588.6841430664062	48.26730728149416	-301.5323486328125	341.3541259765625	83.29916381835942	-591.1661376953125	648.6928100585938	73.74187469482426	-642.8302001953125	555.4015502929688	50.72670745849613	-578.5023193359375	541.7017211914062	47.10919952392582	-694.9690551757812	487.7669982910156	46.49690628051762	-680.0484619140625	523.3765869140625	112.5665283203125	-625.6651611328125	597.056640625	51.45217514038089	-587.0715942382812	585.9398803710938	56.75093078613286	-690.1829223632812	478.01513671875	543.188720703125	-446.0293884277343	317.2360534667969	1169.830444335938	-458.7849731445312	0	0	0	305.2405395507812	1067.696411132812	-463.6734619140624	200	0	0	0	1.224646799147353e-14	-200	0	200	1.224646799147353e-14	nan	nan	nan	nan	nan	nan	nan	nan	nan	
